<?xml version="1.0" standalone="no"?>
<!DOCTYPE svg PUBLIC "-//W3C//DTD SVG 20010904//EN"
 "http://www.w3.org/TR/2001/REC-SVG-20010904/DTD/svg10.dtd">
<svg version="1.0" xmlns="http://www.w3.org/2000/svg"
 width="500.000000pt" height="500.000000pt" viewBox="0 0 500.000000 500.000000"
 preserveAspectRatio="xMidYMid meet">
<metadata>
Created by potrace 1.11, written by Peter Selinger 2001-2013
</metadata>
<g transform="translate(0.000000,500.000000) scale(0.100000,-0.100000)"
fill="#000000" stroke="none">
<path d="M1240 2500 l0 -2260 263 0 263 0 -1 965 0 965 55 0 c30 1 452 1 938
1 l882 0 0 234 0 235 -812 0 c-447 0 -869 0 -938 0 l-125 0 0 825 0 825 125 0
c69 1 518 1 998 1 l872 -1 0 235 -1 235 -1260 0 -1259 -1 0 -2259z"/>
</g>
</svg>
