<svg clip-rule="evenodd" fill-rule="evenodd" stroke-linejoin="round" stroke-miterlimit="1.41421" viewBox="0 0 2304 1792" xmlns="http://www.w3.org/2000/svg"><path d="m1774 836 18 316c2.67 46-24.67 88.67-82 128s-135.67 70.5-235 93.5-207 34.5-323 34.5-223.667-11.5-323-34.5-177.667-54.17-235-93.5-84.667-82-82-128l18-316 574 181c14.67 4.67 30.67 7 48 7s33.33-2.33 48-7zm530-324c0 15.333-7.33 25.667-22 31l-1120 352c-2.67.667-6 1-10 1s-7.33-.333-10-1l-652-206c-28.667 22.667-52.333 59.833-71 111.5s-30 111.167-34 178.5c42 24 63 60.33 63 109 0 46-19.333 81.67-58 107l58 433c1.333 9.33-1.333 17.67-8 25-6 7.33-14 11-24 11h-192c-10 0-18-3.67-24-11-6.667-7.33-9.333-15.67-8-25l58-433c-38.667-25.33-58-61-58-107 0-48.67 21.667-85.67 65-111 7.333-138 40-248 98-330l-333-104c-14.667-5.333-22-15.667-22-31s7.333-25.667 22-31l1120-352c2.67-.667 6-1 10-1s7.33.333 10 1l1120 352c14.67 5.333 22 15.667 22 31z" fill="#606c76" fill-rule="nonzero"/></svg>