<?xml version="1.0" encoding="UTF-8" standalone="no"?>
<!DOCTYPE svg PUBLIC "-//W3C//DTD SVG 1.1//EN" "http://www.w3.org/Graphics/SVG/1.1/DTD/svg11.dtd">
<svg width="100%" height="100%" viewBox="0 0 500 500" version="1.1" xmlns="http://www.w3.org/2000/svg" xmlns:xlink="http://www.w3.org/1999/xlink" xml:space="preserve" xmlns:serif="http://www.serif.com/" style="fill-rule:evenodd;clip-rule:evenodd;stroke-linejoin:round;stroke-miterlimit:1.41421;">
    <g id="path188" transform="matrix(31.5115,0,0,-31.5115,-1381.51,2766.52)">
        <path d="M56.105,79.364C56.087,81.372 57.745,82.336 57.82,82.383C56.887,83.748 55.435,83.935 54.917,83.957C53.682,84.082 52.506,83.23 51.88,83.23C51.254,83.23 50.286,83.939 49.262,83.919C47.914,83.899 46.673,83.136 45.979,81.93C44.58,79.503 45.622,75.906 46.984,73.936C47.651,72.973 48.445,71.888 49.489,71.928C50.495,71.968 50.875,72.578 52.089,72.578C53.303,72.578 53.645,71.928 54.708,71.947C55.789,71.968 56.475,72.931 57.137,73.897C57.901,75.015 58.217,76.097 58.235,76.154C58.211,76.164 56.127,76.963 56.105,79.364" style="fill:rgb(179,179,179);fill-rule:nonzero;"/>
    </g>
    <g id="path190" transform="matrix(0.574502,0,0,0.574502,46.3515,-0.200329)">
        <path d="M482.439,139.337C512.825,102.533 533.339,51.357 527.689,0.349C483.915,2.106 430.933,29.529 399.503,66.334C371.366,98.861 346.684,150.967 353.372,200.937C402.191,204.722 452.047,176.088 482.439,139.337" style="fill:rgb(179,179,179);fill-rule:nonzero;"/>
    </g>
</svg>
