<?xml version="1.0" encoding="UTF-8" standalone="no"?>
<!DOCTYPE svg PUBLIC "-//W3C//DTD SVG 1.1//EN" "http://www.w3.org/Graphics/SVG/1.1/DTD/svg11.dtd">
<svg width="100%" height="100%" viewBox="0 0 500 500" version="1.1" xmlns="http://www.w3.org/2000/svg" xmlns:xlink="http://www.w3.org/1999/xlink" xml:space="preserve" xmlns:serif="http://www.serif.com/" style="fill-rule:evenodd;clip-rule:evenodd;stroke-linejoin:round;stroke-miterlimit:1.41421;">
    <g id="path3203" transform="matrix(2.55903,0,0,2.55903,-5.7461,174.013)">
        <path d="M6.965,51.035L10.737,43.957L25.263,43.678C36.994,43.452 39.95,43.142 40.628,42.068C41.09,41.336 41.473,31.861 41.481,21.006L41.494,1.275L60.117,1.275L60.117,24.644C60.117,47.419 60.066,48.088 58.122,50.945C57.024,52.557 55.001,54.711 53.625,55.732C51.254,57.489 49.865,57.6 27.159,57.85L3.194,58.112L6.965,51.035Z" style="fill:rgb(255,0,0);fill-rule:nonzero;"/>
    </g>
    <g id="path3201" transform="matrix(2.55903,0,0,2.55903,-5.7461,174.013)">
        <path d="M66.325,29.653L66.325,1.275L94.071,1.275C121.083,1.275 121.921,1.328 125.766,3.271C137.472,9.184 140.121,30.759 130.238,39.687C125.939,43.571 123.233,44.021 106.302,43.666L93.515,43.398L89.675,36.893C87.562,33.316 85.834,30.223 85.834,30.021C85.834,29.818 92.219,29.653 100.023,29.653C113.029,29.653 114.359,29.505 115.985,27.879C118.404,25.46 118.392,19.644 115.963,17.216C114.286,15.538 113.221,15.436 99.779,15.664L85.391,15.907L85.153,36.969L84.915,58.03L75.62,58.03L66.325,58.03L66.325,29.653L66.325,29.653Z" style="fill:rgb(255,0,0);fill-rule:nonzero;"/>
    </g>
    <g id="path1873" transform="matrix(2.55903,0,0,2.55903,-5.7461,174.013)">
        <path d="M146.312,56.547C141.025,53.941 140.815,52.763 140.815,25.706L140.815,1.275L157.632,1.275L158.108,42.511L173.849,42.753L189.59,42.996L193.136,50.05C195.087,53.93 196.683,57.312 196.683,57.567C196.683,57.822 186.008,58.021 172.962,58.01C152.87,57.993 148.792,57.769 146.312,56.547Z" style="fill:rgb(255,0,0);fill-rule:nonzero;"/>
    </g>
</svg>
