<?xml version="1.0" encoding="UTF-8" standalone="no"?>
<!DOCTYPE svg PUBLIC "-//W3C//DTD SVG 1.1//EN" "http://www.w3.org/Graphics/SVG/1.1/DTD/svg11.dtd">
<svg width="100%" height="100%" viewBox="0 0 500 500" version="1.1" xmlns="http://www.w3.org/2000/svg" xmlns:xlink="http://www.w3.org/1999/xlink" xml:space="preserve" xmlns:serif="http://www.serif.com/" style="fill-rule:evenodd;clip-rule:evenodd;stroke-linejoin:round;stroke-miterlimit:1.41421;">
    <g transform="matrix(4.99012,0,0,4.99012,255.654,250)">
        <g transform="matrix(1,0,0,1,-55,-46)">
            <circle cx="50.049" cy="45" r="40.14" style="fill:rgb(11,61,145);"/>
            <g>
                <circle cx="47.679" cy="12.57" r="0.45" style="fill:white;"/>
                <circle cx="52.299" cy="13.17" r="0.45" style="fill:white;"/>
                <circle cx="58.359" cy="21.33" r="0.45" style="fill:white;"/>
                <circle cx="25.119" cy="63.33" r="0.45" style="fill:white;"/>
                <circle cx="26.289" cy="66.93" r="0.45" style="fill:white;"/>
                <circle cx="20.709" cy="63.87" r="0.337" style="fill:white;"/>
                <circle cx="39.009" cy="70.942" r="0.338" style="fill:white;"/>
                <circle cx="67.711" cy="64.98" r="0.337" style="fill:white;"/>
                <circle cx="76.052" cy="55.92" r="0.338" style="fill:white;"/>
                <circle cx="35.169" cy="23.962" r="0.337" style="fill:white;"/>
                <circle cx="44.349" cy="17.22" r="0.337" style="fill:white;"/>
                <circle cx="43.352" cy="16.56" r="0.337" style="fill:white;"/>
                <circle cx="42.452" cy="15.9" r="0.337" style="fill:white;"/>
                <circle cx="36.609" cy="25.703" r="0.337" style="fill:white;"/>
                <circle cx="50.131" cy="8.16" r="0.337" style="fill:white;"/>
                <circle cx="52.352" cy="17.88" r="0.337" style="fill:white;"/>
                <circle cx="48.849" cy="15.982" r="0.337" style="fill:white;"/>
                <circle cx="42.849" cy="18.563" r="0.337" style="fill:white;"/>
                <circle cx="69.309" cy="73.883" r="0.337" style="fill:white;"/>
                <circle cx="24.549" cy="65.61" r="0.338" style="fill:white;"/>
                <circle cx="48.009" cy="69.96" r="0.338" style="fill:white;"/>
                <circle cx="31.531" cy="65.34" r="0.338" style="fill:white;"/>
                <circle cx="34.449" cy="70.103" r="0.338" style="fill:white;"/>
                <circle cx="55.929" cy="67.103" r="0.337" style="fill:white;"/>
                <circle cx="67.771" cy="60.42" r="0.337" style="fill:white;"/>
                <circle cx="76.749" cy="64.522" r="0.337" style="fill:white;"/>
                <circle cx="79.809" cy="66.48" r="0.337" style="fill:white;"/>
                <circle cx="80.312" cy="61.14" r="0.337" style="fill:white;"/>
                <circle cx="35.671" cy="53.58" r="0.337" style="fill:white;"/>
                <circle cx="35.799" cy="61.32" r="0.45" style="fill:white;"/>
                <circle cx="38.499" cy="67.02" r="0.45" style="fill:white;"/>
                <circle cx="70.839" cy="61.08" r="0.45" style="fill:white;"/>
                <circle cx="82.479" cy="60.42" r="0.45" style="fill:white;"/>
                <circle cx="76.719" cy="57.96" r="0.45" style="fill:white;"/>
                <circle cx="70.839" cy="58.2" r="0.45" style="fill:white;"/>
                <path d="M58.71,12.288L59.829,12.181L58.712,12.118C58.677,11.902 58.504,11.733 58.286,11.705L58.179,10.591L58.115,11.714C57.913,11.759 57.758,11.928 57.733,12.138L56.589,12.242L57.741,12.304C57.783,12.497 57.939,12.648 58.135,12.684L58.239,13.832L58.3,12.686C58.507,12.651 58.671,12.492 58.71,12.288Z" style="fill:white;fill-rule:nonzero;"/>
                <path d="M39.824,24.746L40.943,24.639L39.826,24.576C39.792,24.36 39.618,24.191 39.4,24.163L39.293,23.049L39.23,24.172C39.027,24.217 38.872,24.386 38.847,24.596L37.703,24.7L38.855,24.762C38.897,24.955 39.053,25.106 39.249,25.142L39.353,26.29L39.415,25.144C39.622,25.11 39.786,24.95 39.824,24.746Z" style="fill:white;fill-rule:nonzero;"/>
                <path d="M81.659,57.684L82.778,57.577L81.661,57.514C81.627,57.298 81.453,57.129 81.235,57.101L81.128,55.987L81.065,57.11C80.863,57.155 80.708,57.324 80.683,57.534L79.539,57.638L80.691,57.7C80.733,57.893 80.889,58.044 81.085,58.08L81.189,59.228L81.251,58.082C81.456,58.048 81.62,57.889 81.659,57.684Z" style="fill:white;fill-rule:nonzero;"/>
                <path d="M36.044,74.906L37.163,74.799L36.046,74.736C36.011,74.52 35.838,74.351 35.62,74.323L35.513,73.21L35.45,74.332C35.247,74.377 35.092,74.546 35.067,74.756L33.923,74.86L35.075,74.922C35.117,75.115 35.273,75.267 35.469,75.302L35.573,76.45L35.635,75.304C35.841,75.27 36.006,75.11 36.044,74.906Z" style="fill:white;fill-rule:nonzero;"/>
                <path d="M78.104,66.506L79.223,66.399L78.106,66.336C78.072,66.12 77.898,65.951 77.68,65.923L77.573,64.809L77.51,65.931C77.308,65.976 77.153,66.145 77.128,66.355L75.984,66.459L77.136,66.521C77.178,66.714 77.334,66.865 77.53,66.901L77.634,68.049L77.696,66.903C77.901,66.87 78.066,66.71 78.104,66.506Z" style="fill:white;fill-rule:nonzero;"/>
                <path d="M59.568,35.385C54.901,37.199 50.349,38.818 46.508,40.02C38.703,42.464 17.348,49.08 4.448,57.42L5.528,57.84C13.388,53.4 18.497,52.005 23.408,50.46C28.748,48.78 46.011,44.74 53.828,42.54C56.469,41.797 59.562,40.824 62.838,39.64C62.076,38.577 61.272,37.511 60.426,36.447C60.143,36.088 59.856,35.734 59.568,35.385ZM65.27,43.244C64.14,44.007 63.193,44.616 62.53,45C58.69,47.22 39.969,60 35.71,62.94C31.451,65.88 19.63,77.04 16.15,80.28L16.03,81.599C27.25,71.519 30.77,69.033 35.23,65.64C40.75,61.44 52.169,53.67 56.05,51.18C59.76,48.8 63.106,46.611 66.109,44.608C66.06,44.526 66.011,44.444 65.962,44.361C65.736,43.99 65.505,43.618 65.27,43.244ZM82.809,24.72C77.343,27.924 68.728,31.791 60.37,35.072C60.57,35.317 60.769,35.564 60.967,35.813C61.901,36.989 62.782,38.173 63.611,39.358C70.181,36.938 77.39,33.69 83.11,29.759C80.385,32.341 71.376,39.074 65.883,42.827C66.166,43.288 66.44,43.749 66.705,44.208C75.027,38.639 80.627,34.54 83.89,31.799C88.39,28.019 98.65,19.559 102.55,8.219C95.709,16.92 87.621,21.899 82.809,24.72Z" style="fill:rgb(252,61,33);fill-rule:nonzero;"/>
                <path d="M44.884,54.939C43.999,53.825 42.775,52.333 41.856,51.176C40.627,49.629 39.49,48.066 38.448,46.505C38.108,46.59 37.769,46.675 37.43,46.76C38.688,48.723 40.085,50.683 41.607,52.599C42.719,53.999 43.73,55.126 44.248,55.827C44.353,55.969 44.561,56.283 44.842,56.701C45.166,56.481 45.493,56.259 45.823,56.035C45.504,55.688 45.189,55.323 44.884,54.939ZM51.344,60.803C50.617,60.115 48.854,58.966 47.019,57.242C46.614,57.52 46.205,57.802 45.795,58.086C46.98,59.756 48.594,61.807 49.858,62.405C51.762,63.307 52.275,61.685 51.344,60.803ZM60.967,35.813C50.475,22.607 37.658,15.352 32.132,19.743C27.84,23.153 29.602,33.119 35.518,43.588C35.824,43.483 36.127,43.38 36.427,43.278C30.456,33.078 28.822,23.599 32.87,20.382C37.957,16.34 50.24,23.623 60.428,36.446C62.537,39.1 64.391,41.764 65.961,44.361C71.973,54.311 73.818,63.309 69.664,66.982C68.393,68.106 64.509,68.547 59.421,66.257C59.35,66.346 59.464,66.587 59.553,66.646C63.945,68.412 68.152,69.085 70.276,67.398C75.38,63.342 71.459,49.019 60.967,35.813Z" style="fill:white;fill-rule:nonzero;"/>
                <path d="M15.969,37.38L22.689,37.38L28.329,46.95C28.329,46.95 28.329,40.02 28.329,39.48C28.329,38.64 27.264,37.545 26.889,37.38C27.339,37.38 31.269,37.38 31.539,37.38C31.254,37.455 30.339,38.565 30.339,39.48C30.339,39.93 30.339,49.98 30.339,50.46C30.339,51.135 31.314,52.065 31.779,52.425L25.299,52.425L19.569,42.81C19.569,42.81 19.569,49.98 19.569,50.37C19.569,51.12 20.304,51.84 21.069,52.455L16.119,52.455C16.824,52.155 17.499,51.21 17.559,50.46C17.619,49.71 17.559,40.035 17.559,39.615C17.559,38.7 16.674,37.95 15.969,37.38Z" style="fill:white;fill-rule:nonzero;"/>
                <path d="M77.439,52.425L86.379,52.425C85.884,52.305 85.329,51.72 85.029,50.94C84.729,50.16 79.989,37.38 79.989,37.38L76.59,37.38C75.626,38.074 74.593,38.806 73.49,39.577C73.487,39.605 73.484,39.633 73.479,39.66C73.331,40.56 70.671,50.194 70.509,50.67C70.284,51.33 69.129,52.065 68.664,52.455L73.479,52.455C72.999,51.915 72.609,51.39 72.699,50.79C72.789,50.19 73.059,48.99 73.059,48.99L78.039,48.99C78.264,49.59 78.432,50.129 78.519,50.64C78.624,51.255 77.994,51.945 77.439,52.425ZM73.509,47.07L75.189,41.58L77.409,47.07L73.509,47.07ZM72.752,37.928C72.999,37.746 73.247,37.563 73.494,37.38L72.189,37.38C72.319,37.5 72.534,37.689 72.752,37.928Z" style="fill:white;fill-rule:nonzero;"/>
                <path d="M38.559,50.79C38.649,50.19 38.919,48.99 38.919,48.99L43.899,48.99C44.124,49.59 44.292,50.129 44.379,50.64C44.484,51.255 43.854,51.945 43.299,52.425L51.17,52.425C51.334,52.315 51.497,52.205 51.66,52.096C51.355,51.826 51.074,51.421 50.889,50.94C50.589,50.16 45.849,37.38 45.849,37.38L38.049,37.38C38.424,37.725 39.504,38.655 39.339,39.66C39.192,40.56 36.531,50.194 36.369,50.67C36.144,51.33 34.989,52.065 34.524,52.455L39.339,52.455C38.859,51.915 38.469,51.39 38.559,50.79ZM41.049,41.58L43.269,47.07L39.369,47.07L41.049,41.58Z" style="fill:white;fill-rule:nonzero;"/>
                <path d="M65.748,44.848C64.28,45.826 62.731,46.847 61.099,47.913C61.831,48.268 62.414,48.714 62.47,49.29C62.574,50.372 60.4,50.895 58.435,50.67C58.042,50.625 57.656,50.522 57.288,50.384C56.88,50.647 56.468,50.912 56.05,51.18C55.625,51.453 55.109,51.789 54.52,52.177L54.52,53.73C54.91,52.965 55.763,52.28 56.425,52.245C56.71,52.23 57.7,53.145 61.78,52.92C63.76,52.811 67.585,50.7 67.525,48.27C67.489,46.834 66.739,45.714 65.748,44.848ZM54.519,48.6L54.519,50.182C54.88,49.941 55.236,49.704 55.585,49.473C55.036,49.091 54.647,48.734 54.519,48.6ZM64.353,43.855C63.973,43.63 63.588,43.433 63.219,43.259C61.299,42.359 59.289,42.194 58.869,40.979C58.573,40.122 59.409,39.329 61.449,39.359C63.489,39.389 65.379,40.604 65.889,41.039L65.889,37.169C65.739,37.319 65.081,38.074 64.479,37.949C63.324,37.709 61.359,37.396 59.109,37.409C56.529,37.424 54.309,39.418 54.234,41.939C54.129,45.464 56.949,46.424 58.539,46.979C58.703,47.036 58.89,47.097 59.093,47.162C60.618,46.17 61.824,45.406 62.53,44.999C63.004,44.726 63.625,44.334 64.353,43.855Z" style="fill:white;fill-rule:nonzero;"/>
            </g>
        </g>
    </g>
</svg>
