<?xml version="1.0" encoding="UTF-8" standalone="no"?>
<!DOCTYPE svg PUBLIC "-//W3C//DTD SVG 1.1//EN" "http://www.w3.org/Graphics/SVG/1.1/DTD/svg11.dtd">
<svg width="100%" height="100%" viewBox="0 0 500 500" version="1.1" xmlns="http://www.w3.org/2000/svg" xmlns:xlink="http://www.w3.org/1999/xlink" xml:space="preserve" xmlns:serif="http://www.serif.com/" style="fill-rule:evenodd;clip-rule:evenodd;stroke-linejoin:round;stroke-miterlimit:1.41421;">
    <g id="path2456" transform="matrix(14.2961,0,0,14.2961,-478.353,127.846)">
        <path d="M34.151,7.155C34.202,7.166 35.174,7.62 36.527,8.402C36.18,8.407 35.977,8.415 35.953,8.42C35.712,8.431 35.527,8.639 35.548,8.873C35.569,9.108 35.763,9.283 35.994,9.272C36.036,9.265 36.763,9.22 37.88,9.224C38.456,9.591 39.062,9.998 39.669,10.441C39.262,10.612 39.023,10.725 38.999,10.745C38.755,10.86 38.635,11.113 38.733,11.3C38.83,11.486 39.09,11.544 39.326,11.434C39.35,11.411 39.729,11.228 40.358,10.961C40.568,11.122 40.776,11.291 40.984,11.46C41.444,11.819 41.884,12.194 42.308,12.573C41.906,12.877 41.675,13.071 41.654,13.1C41.4,13.312 41.334,13.653 41.511,13.843C41.684,14.033 42.011,14.026 42.256,13.821C42.277,13.794 42.538,13.565 42.996,13.208C43.592,13.78 44.135,14.342 44.61,14.856C44.349,15.131 44.199,15.304 44.184,15.335C43.896,15.654 43.881,16.1 44.14,16.314C44.4,16.525 44.816,16.451 45.091,16.144C45.101,16.117 45.218,15.981 45.423,15.754C46.151,16.578 46.593,17.121 46.644,17.088C46.713,17.047 46.362,16.397 45.7,15.454C46.459,14.633 47.893,13.172 49.743,11.516C50.72,11.939 51.321,12.258 51.331,12.232C51.376,12.18 50.856,11.804 49.964,11.319C51.196,10.227 52.6,9.063 54.107,7.947C55.549,7.909 56.496,7.95 56.496,7.91C56.508,7.86 55.715,7.741 54.466,7.684C54.886,7.378 55.313,7.078 55.748,6.784C56.539,6.215 57.347,5.677 58.15,5.172C60.201,4.521 61.627,4.191 61.609,4.136C61.605,4.073 60.66,4.194 59.203,4.524C63.807,1.77 67.998,0.117 67.947,0.01C67.908,-0.159 62.154,1.774 56.605,5.21C54.939,5.706 53.037,6.382 51.189,7.259C50.803,7.431 50.417,7.611 50.037,7.796C49.266,7.869 48.472,7.974 47.677,8.124C46.243,8.346 44.839,8.693 43.587,9.061C41.795,8.685 40.003,8.518 38.606,8.448C36.531,6.981 34.763,6.077 34.679,6.056C34.454,5.949 34.152,6.115 34.019,6.424C33.888,6.735 33.942,7.056 34.151,7.155M44.978,14.477C44.563,13.943 44.083,13.365 43.549,12.78C44.365,12.16 45.52,11.326 46.886,10.448C47.515,10.643 48.101,10.853 48.632,11.059C47.016,12.457 45.744,13.696 44.978,14.477M54.841,6.345C54.189,6.769 53.546,7.208 52.927,7.655C52.577,7.656 52.215,7.664 51.835,7.678C52.84,7.177 53.858,6.733 54.841,6.345M50.87,8.158C51.405,8.101 51.927,8.057 52.42,8.024C51.159,8.955 49.98,9.904 48.936,10.798C48.465,10.578 47.943,10.35 47.381,10.134C48.454,9.464 49.635,8.78 50.87,8.158M47.778,8.652C48.091,8.584 48.405,8.521 48.723,8.464C47.908,8.898 47.129,9.347 46.411,9.785C45.923,9.625 45.413,9.476 44.891,9.349C45.81,9.082 46.784,8.838 47.778,8.652M43.702,9.713C43.779,9.728 43.858,9.74 43.935,9.756C44.584,9.853 45.217,9.989 45.827,10.147C44.646,10.888 43.645,11.585 42.923,12.113C42.489,11.67 42.025,11.227 41.541,10.805C41.46,10.728 41.377,10.653 41.294,10.578C41.971,10.309 42.791,10.007 43.702,9.713M42.224,9.49C41.645,9.683 41.124,9.871 40.674,10.04C40.36,9.774 40.041,9.52 39.723,9.273C40.5,9.313 41.349,9.38 42.224,9.49" style="fill:rgb(210,148,49);fill-rule:nonzero;"/>
    </g>
</svg>
